<mxfile host="app.diagrams.net" modified="2021-06-24T17:24:39.751Z" agent="5.0 (Windows)" etag="z8ujpgJ9bJGAke6kRODi" version="14.8.1" type="github">
  <diagram id="Kj3eJn6oS48Wpw1woIf9" name="Page-1">
    <mxGraphModel dx="1038" dy="564" grid="1" gridSize="10" guides="1" tooltips="1" connect="1" arrows="1" fold="1" page="1" pageScale="1" pageWidth="850" pageHeight="1100" math="0" shadow="0">
      <root>
        <mxCell id="0" />
        <mxCell id="1" parent="0" />
      </root>
    </mxGraphModel>
  </diagram>
</mxfile>
